<svg width="24" height="24" viewBox="0 0 24 24" fill="none" xmlns="http://www.w3.org/2000/svg">
<path fill-rule="evenodd" clip-rule="evenodd" d="M6 10.5C6 8.01472 8.01472 6 10.5 6C12.9853 6 15 8.01472 15 10.5C15 12.9853 12.9853 15 10.5 15C8.01472 15 6 12.9853 6 10.5ZM10.5 4C6.91015 4 4 6.91015 4 10.5C4 14.0899 6.91015 17 10.5 17C11.9341 17 13.2597 16.5356 14.3347 15.7489L18.793 20.2072L20.2072 18.793L15.7489 14.3347C16.5356 13.2597 17 11.9341 17 10.5C17 6.91015 14.0899 4 10.5 4Z" fill="black"/>
</svg>
